<svg width="37" height="37" viewBox="0 0 37 37" fill="none" xmlns="http://www.w3.org/2000/svg">
<path d="M26.8193 31.5998C26.5795 31.6007 26.3428 31.5441 26.1293 31.4348L18.4794 27.4298L10.8294 31.4348C10.581 31.5654 10.3009 31.6237 10.021 31.6031C9.74109 31.5824 9.47259 31.4837 9.24602 31.318C9.01944 31.1524 8.84388 30.9265 8.73929 30.6661C8.63471 30.4057 8.60528 30.1211 8.65437 29.8448L10.1544 21.3998L3.97438 15.3998C3.78157 15.2074 3.64479 14.9662 3.57872 14.7019C3.51266 14.4376 3.5198 14.1604 3.59938 13.8999C3.68632 13.6333 3.84624 13.3964 4.061 13.2161C4.27577 13.0358 4.53676 12.9193 4.81438 12.8799L13.3644 11.6349L17.1294 3.93991C17.2522 3.68631 17.444 3.47243 17.6827 3.32277C17.9215 3.17312 18.1976 3.09375 18.4794 3.09375C18.7611 3.09375 19.0372 3.17312 19.276 3.32277C19.5148 3.47243 19.7065 3.68631 19.8294 3.93991L23.6394 11.6199L32.1893 12.8649C32.467 12.9043 32.728 13.0208 32.9427 13.2011C33.1575 13.3814 33.3174 13.6183 33.4043 13.8849C33.4839 14.1454 33.4911 14.4226 33.425 14.6869C33.3589 14.9512 33.2222 15.1924 33.0293 15.3848L26.8493 21.3848L28.3493 29.8298C28.4029 30.111 28.3749 30.4016 28.2685 30.6674C28.1622 30.9332 27.9821 31.163 27.7493 31.3298C27.4777 31.5201 27.1507 31.615 26.8193 31.5998Z" fill="#FC4C4C"/>
</svg>
