<svg width="33" height="33" viewBox="0 0 33 33" fill="none" xmlns="http://www.w3.org/2000/svg">
<path d="M16.8515 28.0995C16.676 28.1005 16.5021 28.0669 16.3396 28.0005C16.1772 27.9342 16.0294 27.8364 15.9048 27.7128L5.54481 17.3396C4.24529 16.0265 3.51636 14.2537 3.51636 12.4063C3.51636 10.5588 4.24529 8.78605 5.54481 7.47295C6.85449 6.16698 8.62859 5.43359 10.4781 5.43359C12.3277 5.43359 14.1018 6.16698 15.4115 7.47295L16.8515 8.91295L18.2915 7.47295C19.6012 6.16698 21.3753 5.43359 23.2248 5.43359C25.0744 5.43359 26.8485 6.16698 28.1582 7.47295C29.4577 8.78605 30.1866 10.5588 30.1866 12.4063C30.1866 14.2537 29.4577 16.0265 28.1582 17.3396L17.7982 27.7128C17.6736 27.8364 17.5258 27.9342 17.3634 28.0005C17.2009 28.0669 17.027 28.1005 16.8515 28.0995Z" fill="#FC4C4C"/>
</svg>
