<svg width="33" height="33" viewBox="0 0 33 33" fill="none" xmlns="http://www.w3.org/2000/svg">
<path d="M16.354 0.613159C7.53175 0.613159 0.354004 7.79091 0.354004 16.6132C0.354004 25.4354 7.53175 32.6132 16.354 32.6132C25.1763 32.6132 32.354 25.4354 32.354 16.6132C32.354 7.79091 25.1763 0.613159 16.354 0.613159ZM22.8253 21.199C23.0857 21.4593 23.0857 21.8815 22.8253 22.1418L21.8828 23.0844C21.6223 23.3447 21.2003 23.3447 20.9399 23.0844L16.354 18.4986L11.7681 23.0845C11.5077 23.3448 11.0857 23.3448 10.8253 23.0845L9.88269 22.1418C9.62225 21.8815 9.62225 21.4594 9.88269 21.199L14.4686 16.6131L9.88269 12.0272C9.62225 11.7669 9.62225 11.3448 9.88269 11.0844L10.8253 10.1418C11.0857 9.88147 11.5077 9.88147 11.7681 10.1418L16.354 14.7277L20.9399 10.1418C21.2003 9.88147 21.6223 9.88147 21.8828 10.1418L22.8253 11.0844C23.0858 11.3447 23.0858 11.7668 22.8253 12.0272L18.2394 16.6131L22.8253 21.199Z" fill="#FC4C4C"/>
</svg>
